<svg width="20.000000" height="20.000000" viewBox="0 0 20 20" fill="none" xmlns="http://www.w3.org/2000/svg" xmlns:xlink="http://www.w3.org/1999/xlink">
	<desc>
			Created with Pixso.
	</desc>
	<defs>
		<clipPath id="clip3_727">
			<rect id="eye-crossed 1" width="20.000000" height="20.000000" fill="white" fill-opacity="0"/>
		</clipPath>
	</defs>
	<rect id="eye-crossed 1" width="20.000000" height="20.000000" fill="#FFFFFF" fill-opacity="0"/>
	<g clip-path="url(#clip3_727)">
		<path id="Vector" d="M19.39 7.84C18.64 6.61 17.69 5.51 16.58 4.59L18.91 2.25C19.06 2.1 19.15 1.89 19.15 1.67C19.14 1.45 19.06 1.24 18.9 1.09C18.75 0.93 18.54 0.84 18.32 0.84C18.1 0.84 17.89 0.92 17.73 1.07L15.2 3.62C13.62 2.68 11.82 2.19 9.99 2.21C4.84 2.21 1.9 5.74 0.6 7.84C0.2 8.49 -0.01 9.24 -0.01 10C-0.01 10.75 0.2 11.5 0.6 12.15C1.35 13.38 2.3 14.48 3.41 15.4L1.08 17.74C1 17.81 0.94 17.91 0.89 18.01C0.85 18.11 0.82 18.22 0.82 18.33C0.82 18.44 0.84 18.55 0.89 18.65C0.93 18.75 0.99 18.85 1.07 18.93C1.15 19 1.24 19.07 1.34 19.11C1.44 19.15 1.55 19.17 1.66 19.17C1.78 19.17 1.88 19.15 1.99 19.1C2.09 19.06 2.18 18.99 2.26 18.92L4.8 16.37C6.37 17.31 8.17 17.79 9.99 17.78C15.15 17.78 18.09 14.25 19.39 12.15C19.79 11.5 20 10.75 20 10C20 9.24 19.79 8.49 19.39 7.84ZM2.02 11.27C1.79 10.89 1.66 10.45 1.66 10C1.66 9.54 1.79 9.1 2.02 8.72C3.13 6.91 5.65 3.87 9.99 3.87C11.38 3.87 12.74 4.2 13.97 4.85L12.29 6.52C11.49 5.99 10.53 5.75 9.57 5.85C8.62 5.94 7.73 6.37 7.05 7.05C6.37 7.73 5.94 8.62 5.85 9.57C5.75 10.53 5.99 11.49 6.52 12.29L4.6 14.21C3.58 13.39 2.71 12.39 2.02 11.27ZM12.5 10C12.5 10.66 12.23 11.29 11.76 11.76C11.29 12.23 10.66 12.5 9.99 12.5C9.62 12.49 9.26 12.41 8.92 12.25L12.25 8.92C12.41 9.26 12.49 9.62 12.5 10ZM7.49 10C7.49 9.33 7.76 8.7 8.23 8.23C8.7 7.76 9.33 7.5 9.99 7.5C10.37 7.5 10.73 7.58 11.07 7.75L7.74 11.07C7.58 10.73 7.5 10.37 7.49 10ZM17.97 11.27C16.86 13.08 14.34 16.12 9.99 16.12C8.61 16.12 7.25 15.79 6.02 15.15L7.7 13.47C8.5 14 9.46 14.24 10.42 14.14C11.37 14.05 12.26 13.62 12.94 12.94C13.62 12.26 14.05 11.37 14.14 10.42C14.24 9.46 14 8.5 13.47 7.7L15.39 5.78C16.41 6.6 17.28 7.6 17.97 8.72C18.2 9.1 18.33 9.54 18.33 10C18.33 10.45 18.2 10.89 17.97 11.27Z" fill="#000000" fill-opacity="1.000000" fill-rule="nonzero"/>
	</g>
</svg>
