<svg width="20.000000" height="20.000000" viewBox="0 0 20 20" fill="none" xmlns="http://www.w3.org/2000/svg" xmlns:xlink="http://www.w3.org/1999/xlink">
	<desc>
			Created with Pixso.
	</desc>
	<defs>
		<clipPath id="clip3_724">
			<rect id="eye 1" width="20.000000" height="20.000000" fill="white" fill-opacity="0"/>
		</clipPath>
	</defs>
	<rect id="eye 1" width="20.000000" height="20.000000" fill="#FFFFFF" fill-opacity="0"/>
	<g clip-path="url(#clip3_724)">
		<path id="Vector" d="M19.39 7.84C18.1 5.74 15.16 2.21 10 2.21C4.84 2.21 1.9 5.74 0.6 7.84C0.2 8.49 -0.01 9.24 -0.01 10C-0.01 10.75 0.2 11.5 0.6 12.15C1.9 14.25 4.84 17.78 10 17.78C15.16 17.78 18.1 14.25 19.39 12.15C19.79 11.5 20 10.75 20 10C20 9.24 19.79 8.49 19.39 7.84ZM17.97 11.27C16.86 13.08 14.34 16.12 10 16.12C5.65 16.12 3.13 13.08 2.02 11.27C1.79 10.89 1.66 10.45 1.66 10C1.66 9.54 1.79 9.1 2.02 8.72C3.13 6.91 5.65 3.87 10 3.87C14.34 3.87 16.86 6.91 17.97 8.72C18.2 9.1 18.33 9.54 18.33 10C18.33 10.45 18.2 10.89 17.97 11.27Z" fill="#000000" fill-opacity="1.000000" fill-rule="nonzero"/>
		<path id="Vector" d="M10 5.83C9.17 5.83 8.37 6.07 7.68 6.53C6.99 6.99 6.46 7.64 6.15 8.4C5.83 9.16 5.75 10 5.91 10.81C6.07 11.62 6.47 12.36 7.05 12.94C7.63 13.52 8.37 13.92 9.18 14.08C9.99 14.24 10.83 14.16 11.59 13.84C12.35 13.53 13 13 13.46 12.31C13.92 11.62 14.16 10.82 14.16 9.99C14.16 8.89 13.72 7.83 12.94 7.05C12.16 6.27 11.1 5.83 10 5.83ZM10 12.5C9.5 12.5 9.02 12.35 8.61 12.07C8.19 11.8 7.87 11.41 7.69 10.95C7.5 10.49 7.45 9.99 7.54 9.51C7.64 9.02 7.88 8.58 8.23 8.23C8.58 7.88 9.02 7.64 9.51 7.54C9.99 7.45 10.49 7.5 10.95 7.69C11.41 7.87 11.8 8.19 12.07 8.61C12.35 9.02 12.5 9.5 12.5 9.99C12.5 10.66 12.23 11.29 11.76 11.76C11.29 12.23 10.66 12.5 10 12.5Z" fill="#000000" fill-opacity="1.000000" fill-rule="nonzero"/>
	</g>
</svg>
