<svg width="17.000000" height="20.000000" viewBox="0 0 17 20" fill="none" xmlns="http://www.w3.org/2000/svg" xmlns:xlink="http://www.w3.org/1999/xlink">
	<desc>
			Created with Pixso.
	</desc>
	<defs/>
	<path id="Vector" d="M16.33 3.33L12.16 3.33L12.16 1.66C12.16 1.22 11.99 0.8 11.67 0.48C11.36 0.17 10.94 0 10.5 0L5.5 0C5.05 0 4.63 0.17 4.32 0.48C4 0.8 3.83 1.22 3.83 1.66L3.83 3.33L-0.34 3.33L-0.34 5L1.33 5L1.33 17.5C1.33 18.16 1.59 18.79 2.06 19.26C2.53 19.73 3.17 20 3.83 20L12.16 20C12.82 20 13.46 19.73 13.93 19.26C14.4 18.79 14.66 18.16 14.66 17.5L14.66 5L16.33 5L16.33 3.33ZM5.5 1.66L10.5 1.66L10.5 3.33L5.5 3.33L5.5 1.66ZM13 17.5C13 17.72 12.91 17.93 12.75 18.08C12.59 18.24 12.38 18.33 12.16 18.33L3.83 18.33C3.61 18.33 3.4 18.24 3.24 18.08C3.08 17.93 3 17.72 3 17.5L3 5L13 5L13 17.5Z" fill="#000000" fill-opacity="1.000000" fill-rule="nonzero"/>
	<path id="Vector" d="M5.5 8.33L7.16 8.33L7.16 15L5.5 15L5.5 8.33Z" fill="#000000" fill-opacity="1.000000" fill-rule="evenodd"/>
	<path id="Vector" d="M8.83 8.33L10.5 8.33L10.5 15L8.83 15L8.83 8.33Z" fill="#000000" fill-opacity="1.000000" fill-rule="evenodd"/>
</svg>
